<?xml version="1.0" encoding="utf-8"?>
<!-- Generator: Adobe Illustrator 21.1.0, SVG Export Plug-In . SVG Version: 6.00 Build 0)  -->
<svg version="1.1" id="Layer_1" xmlns="http://www.w3.org/2000/svg" xmlns:xlink="http://www.w3.org/1999/xlink" x="0px" y="0px"
	 viewBox="0 0 128 128" style="enable-background:new 0 0 128 128;" xml:space="preserve">
<style type="text/css">
	.st0{fill:#FFFFFF;}
</style>
<path class="st0" d="M97.7,97.7L97.7,97.7c-2.3,2.3-6.1,2.3-8.5,0L69.5,77.9c-2.3-2.3-2.3-6.1,0-8.5l0,0c2.3-2.3,6.1-2.3,8.5,0
	l19.8,19.8C100.1,91.6,100.1,95.4,97.7,97.7z"/>
<path class="st0" d="M35.5,35.5c-9.4,9.4-9.4,24.6,0,33.9c9.4,9.4,24.6,9.4,33.9,0c9.4-9.4,9.4-24.6,0-33.9
	C60.1,26.2,44.9,26.2,35.5,35.5z M63.8,63.8c-6.2,6.2-16.4,6.2-22.6,0c-6.2-6.2-6.2-16.4,0-22.6s16.4-6.2,22.6,0
	C70.1,47.4,70.1,57.6,63.8,63.8z"/>
</svg>
